<?xml version="1.0" encoding="UTF-8" standalone="no"?>
<svg
   version="1.0"
   width="80.704269mm"
   height="83.083397mm"
   id="svg29"
   sodipodi:docname="HIP_Logo_EN_V4_1Colour_White.emf"
   xmlns:inkscape="http://www.inkscape.org/namespaces/inkscape"
   xmlns:sodipodi="http://sodipodi.sourceforge.net/DTD/sodipodi-0.dtd"
   xmlns="http://www.w3.org/2000/svg"
   xmlns:svg="http://www.w3.org/2000/svg">
  <sodipodi:namedview
     id="namedview29"
     pagecolor="#ffffff"
     bordercolor="#000000"
     borderopacity="0.25"
     inkscape:showpageshadow="2"
     inkscape:pageopacity="0.0"
     inkscape:pagecheckerboard="0"
     inkscape:deskcolor="#d1d1d1"
     inkscape:document-units="mm" />
  <defs
     id="defs1">
    <pattern
       id="EMFhbasepattern"
       patternUnits="userSpaceOnUse"
       width="6"
       height="6"
       x="0"
       y="0" />
  </defs>
  <path
     style="fill:#ffffff;fill-rule:nonzero;fill-opacity:1;stroke:none;"
     d="  M 270.66667,66.666667   C 275.66667,67.333333 280,63.666667 280.66667,58.666667   C 281,53.666667 277.33333,49 272.33333,48.666667   C 267.33333,48 263,51.666667 262.33333,56.666667   C 262,61.666667 265.66667,66.333333 270.66667,66.666667   z "
     id="path1" />
  <path
     style="fill:#ffffff;fill-rule:nonzero;fill-opacity:1;stroke:none;"
     d="  M 304.33333,195   C 303.66667,195 303.66667,195.66667 303.66667,195.66667   C 285,267 218.66667,317.66667 140.66667,309.66667   C 57.333333,301.33333 -5.3333333,226.66667 3,143.33333   C 11.666667,60 86.333333,-0.66666667 169.66667,8   C 202.66667,11.333333 231.66667,25.333333 254.66667,45.666667   C 255.33333,46.333333 256.33333,46.666667 257,46.666667   C 259.33333,47 261.66667,45.333333 261.66667,43   C 262,41.333333 261.33333,40 260.33333,39   C 236.66667,18 206.33333,4.3333333 172.66667,0.66666667   C 86.333333,-8 9.3333333,54.666667 0.33333333,140.66667   C -8.3333333,227 54.333333,304 140.33333,313   C 218.66667,321 286.66667,269.66667 305,195.66667   C 305,195.66667 305.33333,195 304.33333,195   z "
     id="path2" />
  <path
     style="fill:#ffffff;fill-rule:nonzero;fill-opacity:1;stroke:none;"
     d="  M 176.33333,138.33333   C 176.33333,142 175.33333,145.66667 173.66667,148.66667   C 184.66667,149 193.33333,158 193.33333,169   C 193.33333,180.66667 184,189.66667 172.66667,189.66667   C 165.66667,189.66667 159.33333,186.33333 155.66667,180.66667   C 152,186.33333 145.66667,189.66667 138.66667,189.66667   C 127.33333,189.66667 118,180.66667 118,169   C 118,158 126.66667,149 137.66667,148.66667   C 136,145.66667 135,142 135,138.33333   C 135,127 144.33333,118 155.66667,118   C 167,118 176.33333,127 176.33333,138.33333   M 102.33333,158.66667   C 102.33333,188 126.33333,211.66667 155.66667,211.66667   C 185,211.66667 208.66667,188 208.66667,158.66667   C 208.66667,129.33333 185,105.33333 155.66667,105.33333   C 126.33333,105.33333 102.33333,129.33333 102.33333,158.66667   z "
     id="path3" />
  <path
     style="fill:#ffffff;fill-rule:nonzero;fill-opacity:1;stroke:none;"
     d="  M 109,232   L 115,232   L 115,225   L 118.33333,225   L 118.33333,243   L 115,243   L 115,235.33333   L 109,235.33333   L 109,243   L 105.66667,243   L 105.66667,225   L 109,225   L 109,232  z   "
     id="path4" />
  <path
     style="fill:#ffffff;fill-rule:nonzero;fill-opacity:1;stroke:none;"
     d="  M 132.66667,225   L 132.66667,228   L 125.33333,228   L 125.33333,232   L 131.66667,232   L 131.66667,235.33333   L 125.33333,235.33333   L 125.33333,240   L 132.66667,240   L 132.66667,243   L 122,243   L 122,225   L 132.66667,225  z   "
     id="path5" />
  <path
     style="fill:#ffffff;fill-rule:nonzero;fill-opacity:1;stroke:none;"
     d="  M 138.33333,240   L 145.66667,240   L 145.66667,243   L 135,243   L 135,225   L 138.33333,225   L 138.33333,240  z   "
     id="path6" />
  <path
     style="fill:#ffffff;fill-rule:nonzero;fill-opacity:1;stroke:none;"
     d="  M 156.33333,229.66667   C 155.66667,228.33333 154.66667,228 153,228   C 151.33333,228 150.66667,228.66667 150.66667,230   C 150.66667,231.33333 151.66667,232 154,232.33333   C 157.66667,233.33333 159.33333,234.66667 159.33333,238   C 159.33333,241 157.33333,243 153.33333,243   C 150.33333,243 148.33333,242.33333 146.66667,240.33333   C 149.33333,238.33333 149.33333,238.33333 149.33333,238.33333   C 150.33333,239.33333 151.33333,240 153,240   C 155,240 155.66667,239.33333 155.66667,238   C 155.66667,237 155,236 152.33333,235.33333   C 148.66667,234.33333 147,232.66667 147,230   C 147,227 149,225 153,225   C 155.66667,225 157.66667,225.66667 159,227.66667   z "
     id="path7" />
  <path
     style="fill:#ffffff;fill-rule:nonzero;fill-opacity:1;stroke:none;"
     d="  M 165.33333,243   L 162,243   L 162,225   L 165.33333,225   L 165.33333,243  z   "
     id="path8" />
  <path
     style="fill:#ffffff;fill-rule:nonzero;fill-opacity:1;stroke:none;"
     d="  M 182,225   L 182,243   L 179,243   L 172.33333,232   L 172.33333,243   L 169,243   L 169,225   L 172,225   L 178.66667,236.33333   L 178.66667,225   L 182,225  z   "
     id="path9" />
  <path
     style="fill:#ffffff;fill-rule:nonzero;fill-opacity:1;stroke:none;"
     d="  M 195.33333,243   L 191,235.33333   L 189,238.33333   L 189,243   L 185.33333,243   L 185.33333,225   L 189,225   L 189,232.66667   L 194.33333,225   L 198.33333,225   L 193.33333,232.33333   L 199.33333,243   L 195.33333,243  z   "
     id="path10" />
  <path
     style="fill:#ffffff;fill-rule:nonzero;fill-opacity:1;stroke:none;"
     d="  M 205,243   L 201.66667,243   L 201.66667,225   L 205,225   L 205,243  z   "
     id="path11" />
  <path
     style="fill:#ffffff;fill-rule:nonzero;fill-opacity:1;stroke:none;"
     d="  M 86.333333,268.33333   L 82.666667,268.33333   L 82.666667,250.33333   L 86.333333,250.33333   L 86.333333,268.33333  z   "
     id="path12" />
  <path
     style="fill:#ffffff;fill-rule:nonzero;fill-opacity:1;stroke:none;"
     d="  M 102.66667,250.33333   L 102.66667,268.33333   L 100,268.33333   L 93.333333,257.33333   L 93.333333,268.33333   L 90,268.33333   L 90,250.33333   L 92.666667,250.33333   L 99.333333,261.66667   L 99.333333,250.33333   L 102.66667,250.33333  z   "
     id="path13" />
  <path
     style="fill:#ffffff;fill-rule:nonzero;fill-opacity:1;stroke:none;"
     d="  M 115,255   C 114.33333,253.66667 113.33333,253.33333 111.66667,253.33333   C 110,253.33333 109.33333,254 109.33333,255.33333   C 109.33333,256.66667 110.33333,257.33333 112.66667,257.66667   C 116.33333,258.66667 118,260 118,263.33333   C 118,266.33333 116,268.33333 112,268.33333   C 109,268.33333 107,267.66667 105.33333,265.66667   C 108,263.66667 108,263.66667 108,263.66667   C 109,264.66667 110,265.33333 111.66667,265.33333   C 113.66667,265.33333 114.33333,264.66667 114.33333,263.33333   C 114.33333,262.33333 113.66667,261.33333 111,260.66667   C 107.66667,259.66667 105.66667,258 105.66667,255.33333   C 105.66667,252.33333 107.66667,250.33333 111.66667,250.33333   C 114.33333,250.33333 116.33333,251 117.66667,253   z "
     id="path14" />
  <path
     style="fill:#ffffff;fill-rule:nonzero;fill-opacity:1;stroke:none;"
     d="  M 131.66667,250.33333   L 131.66667,253.33333   L 127,253.33333   L 127,268.33333   L 123.66667,268.33333   L 123.66667,253.33333   L 119,253.33333   L 119,250.33333   L 131.66667,250.33333  z   "
     id="path15" />
  <path
     style="fill:#ffffff;fill-rule:nonzero;fill-opacity:1;stroke:none;"
     d="  M 137.33333,268.33333   L 134,268.33333   L 134,250.33333   L 137.33333,250.33333   L 137.33333,268.33333  z   "
     id="path16" />
  <path
     style="fill:#ffffff;fill-rule:nonzero;fill-opacity:1;stroke:none;"
     d="  M 152.33333,250.33333   L 152.33333,253.33333   L 147.66667,253.33333   L 147.66667,268.33333   L 144.33333,268.33333   L 144.33333,253.33333   L 139.33333,253.33333   L 139.33333,250.33333   L 152.33333,250.33333  z   "
     id="path17" />
  <path
     style="fill:#ffffff;fill-rule:nonzero;fill-opacity:1;stroke:none;"
     d="  M 167.33333,250.33333   C 167.33333,261 167.33333,261 167.33333,261   C 167.33333,266.33333 164.66667,268.33333 161,268.33333   C 157,268.33333 154.33333,266.33333 154.33333,261   C 154.33333,250.33333 154.33333,250.33333 154.33333,250.33333   C 157.66667,250.33333 157.66667,250.33333 157.66667,250.33333   C 157.66667,261 157.66667,261 157.66667,261   C 157.66667,264 158.66667,265.33333 161,265.33333   C 163,265.33333 164,264 164,261   C 164,250.33333 164,250.33333 164,250.33333   z "
     id="path18" />
  <path
     style="fill:#ffffff;fill-rule:nonzero;fill-opacity:1;stroke:none;"
     d="  M 182.33333,250.33333   L 182.33333,253.33333   L 177.66667,253.33333   L 177.66667,268.33333   L 174,268.33333   L 174,253.33333   L 169.33333,253.33333   L 169.33333,250.33333   L 182.33333,250.33333  z   "
     id="path19" />
  <path
     style="fill:#ffffff;fill-rule:nonzero;fill-opacity:1;stroke:none;"
     d="  M 194.66667,250.33333   L 194.66667,253.33333   L 187.66667,253.33333   L 187.66667,257.33333   L 194,257.33333   L 194,260.66667   L 187.66667,260.66667   L 187.66667,265.33333   L 194.66667,265.33333   L 194.66667,268.33333   L 184,268.33333   L 184,250.33333   L 194.66667,250.33333  z   "
     id="path20" />
  <path
     style="fill:#ffffff;fill-rule:nonzero;fill-opacity:1;stroke:none;"
     d="  M 206.33333,260.66667   C 206.33333,264 207.33333,265.33333 209.33333,265.33333   C 211.33333,265.33333 212.66667,264 212.66667,260.66667   C 212.66667,258 212.66667,258 212.66667,258   C 212.66667,254.66667 211.33333,253.33333 209.33333,253.33333   C 207.33333,253.33333 206.33333,254.66667 206.33333,258   z  M 209.33333,268.33333   C 205.66667,268.33333 203,266 203,260.66667   C 203,258 203,258 203,258   C 203,252.66667 205.66667,250.33333 209.33333,250.33333   C 213.33333,250.33333 216,252.66667 216,258   C 216,260.66667 216,260.66667 216,260.66667   C 216,266 213.33333,268.33333 209.33333,268.33333  "
     id="path21" />
  <path
     style="fill:#ffffff;fill-rule:nonzero;fill-opacity:1;stroke:none;"
     d="  M 229.66667,250.33333   L 229.66667,253.33333   L 222.33333,253.33333   L 222.33333,258   L 228.66667,258   L 228.66667,261   L 222.33333,261   L 222.33333,268.33333   L 219,268.33333   L 219,250.33333   L 229.66667,250.33333  z   "
     id="path22" />
  <path
     style="fill:#ffffff;fill-rule:nonzero;fill-opacity:1;stroke:none;"
     d="  M 115,284.33333   C 117.33333,284.33333 118.33333,283.33333 118.33333,281.33333   C 118.33333,279.66667 117.33333,278.66667 115,278.66667   C 113,278.66667 113,278.66667 113,278.66667   C 113,284.33333 113,284.33333 113,284.33333   z  M 113,287.33333   C 113,293.66667 113,293.66667 113,293.66667   C 109.33333,293.66667 109.33333,293.66667 109.33333,293.66667   C 109.33333,275.66667 109.33333,275.66667 109.33333,275.66667   C 115.66667,275.66667 115.66667,275.66667 115.66667,275.66667   C 119.33333,275.66667 122,277.66667 122,281.33333   C 122,285.33333 119.33333,287.33333 115.66667,287.33333   z "
     id="path23" />
  <path
     style="fill:#ffffff;fill-rule:nonzero;fill-opacity:1;stroke:none;"
     d="  M 127.66667,282.66667   L 133.33333,282.66667   L 133.33333,275.66667   L 137,275.66667   L 137,293.66667   L 133.33333,293.66667   L 133.33333,286   L 127.66667,286   L 127.66667,293.66667   L 124,293.66667   L 124,275.66667   L 127.66667,275.66667   L 127.66667,282.66667  z   "
     id="path24" />
  <path
     style="fill:#ffffff;fill-rule:nonzero;fill-opacity:1;stroke:none;"
     d="  M 142.66667,275.66667   L 146,282.33333   L 149,275.66667   L 153,275.66667   L 147.66667,286.33333   L 147.66667,293.66667   L 144,293.66667   L 144,286.33333   L 138.66667,275.66667   L 142.66667,275.66667  z   "
     id="path25" />
  <path
     style="fill:#ffffff;fill-rule:nonzero;fill-opacity:1;stroke:none;"
     d="  M 163.33333,280.33333   C 162.33333,279 161.66667,278.66667 160,278.66667   C 158.33333,278.66667 157.33333,279.33333 157.33333,280.66667   C 157.33333,282 158.66667,282.66667 160.66667,283   C 164.33333,284 166,285.33333 166,288.66667   C 166,291.66667 164,293.66667 160,293.66667   C 157,293.66667 155,293 153.66667,291   C 156,289 156,289 156,289   C 157,290 158,290.66667 160,290.66667   C 162,290.66667 162.66667,290 162.66667,288.66667   C 162.66667,287.66667 161.66667,286.66667 159,286   C 155.66667,285 154,283.33333 154,280.66667   C 154,277.66667 155.66667,275.66667 160,275.66667   C 162.66667,275.66667 164.66667,276.33333 166,278.33333   z "
     id="path26" />
  <path
     style="fill:#ffffff;fill-rule:nonzero;fill-opacity:1;stroke:none;"
     d="  M 172.33333,293.66667   L 169,293.66667   L 169,275.66667   L 172.33333,275.66667   L 172.33333,293.66667  z   "
     id="path27" />
  <path
     style="fill:#ffffff;fill-rule:nonzero;fill-opacity:1;stroke:none;"
     d="  M 185,281.33333   C 184.66667,279.66667 183.66667,278.66667 182,278.66667   C 180,278.66667 179,280 179,283.33333   C 179,286 179,286 179,286   C 179,289.33333 180,290.66667 182,290.66667   C 183.66667,290.66667 184.66667,290 185,288   C 188.33333,288 188.33333,288 188.33333,288   C 187.66667,292 185.66667,293.66667 182,293.66667   C 178,293.66667 175.33333,291.33333 175.33333,286   C 175.33333,283.33333 175.33333,283.33333 175.33333,283.33333   C 175.33333,278 178,275.66667 182,275.66667   C 185.33333,275.66667 187.66667,277.33333 188.33333,281.33333   z "
     id="path28" />
  <path
     style="fill:#ffffff;fill-rule:nonzero;fill-opacity:1;stroke:none;"
     d="  M 199.66667,280.33333   C 199,279 198,278.66667 196.33333,278.66667   C 194.66667,278.66667 193.66667,279.33333 193.66667,280.66667   C 193.66667,282 195,282.66667 197.33333,283   C 200.66667,284 202.33333,285.33333 202.33333,288.66667   C 202.33333,291.66667 200.66667,293.66667 196.33333,293.66667   C 193.33333,293.66667 191.33333,293 190,291   C 192.66667,289 192.66667,289 192.66667,289   C 193.33333,290 194.66667,290.66667 196.33333,290.66667   C 198.33333,290.66667 199,290 199,288.66667   C 199,287.66667 198.33333,286.66667 195.33333,286   C 192,285 190.33333,283.33333 190.33333,280.66667   C 190.33333,277.66667 192,275.66667 196.33333,275.66667   C 199,275.66667 201,276.33333 202.33333,278.33333   z "
     id="path29" />
</svg>
